<?xml version="1.0" encoding="utf-8"?>
<!-- Generator: Adobe Illustrator 26.5.0, SVG Export Plug-In . SVG Version: 6.00 Build 0)  -->
<svg version="1.0" xmlns="http://www.w3.org/2000/svg" xmlns:xlink="http://www.w3.org/1999/xlink" x="0px" y="0px"
	 viewBox="0 0 40 40" style="enable-background:new 0 0 40 40;" xml:space="preserve">
<style type="text/css">
	.st0{display:none;}
	.st1{display:inline;}
	.st2{fill:none;stroke:#B3B3B3;stroke-width:0.12;stroke-miterlimit:10;}
	.st3{display:inline;fill:none;stroke:#B3B3B3;stroke-width:0.12;stroke-miterlimit:10;}
	.st4{fill:#45386D;}
	.st5{fill:#425B93;}
</style>
<g id="Layer_2" class="st0">
</g>
<g id="Layer_1">
	<g>
		<rect x="11.51" y="2.23" class="st4" width="23.71" height="6.94"/>
		<rect x="11.51" y="25.28" class="st4" width="23.71" height="6.94"/>
		<polygon class="st4" points="11.51,13.58 30.83,13.58 26.94,18.84 11.51,18.84 		"/>
		<path class="st5" d="M10.34,3.73L4.79,14.73v10.42l3.02-5.2l0.35,0.01l-3.37,6.75v9.45l3.59-5.33l0.02,0.67
			c0,0-2.52,5.55-2.46,5.63c0.06,0.07,0,0.65,0,0.65h1.09l3.31-5.29l0.08-7.2l-4.12,4.7L5.9,29.6l4.14-8.17l0.33-0.74l0.04-7.02
			l-3.04,3.7l-0.35-0.74l3.39-6.37V3.73"/>
	</g>
</g>
</svg>
