<?xml version="1.0" encoding="utf-8"?>
<!-- Generator: Adobe Illustrator 26.5.0, SVG Export Plug-In . SVG Version: 6.00 Build 0)  -->
<svg version="1.0" xmlns="http://www.w3.org/2000/svg" xmlns:xlink="http://www.w3.org/1999/xlink" x="0px" y="0px"
	 viewBox="0 0 80 40" style="enable-background:new 0 0 80 40;" xml:space="preserve">
<style type="text/css">
	.st0{display:none;}
	.st1{display:inline;}
	.st2{fill:none;stroke:#B3B3B3;stroke-width:0.12;stroke-miterlimit:10;}
	.st3{display:inline;fill:none;stroke:#B3B3B3;stroke-width:0.12;stroke-miterlimit:10;}
	.st4{fill:#45386D;}
	.st5{fill:#425B93;}
</style>
<g id="Layer_2" class="st0">
	<g class="st1">
		<rect x="68.12" y="2.5" class="st2" width="9.38" height="4.38"/>
		<rect x="58.75" y="2.5" class="st2" width="9.38" height="4.38"/>
		<rect x="49.38" y="2.5" class="st2" width="9.38" height="4.38"/>
		<rect x="40" y="2.5" class="st2" width="9.38" height="4.38"/>
		<rect x="30.62" y="2.5" class="st2" width="9.38" height="4.38"/>
		<rect x="21.25" y="2.5" class="st2" width="9.38" height="4.38"/>
		<rect x="11.88" y="2.5" class="st2" width="9.38" height="4.38"/>
		<rect x="2.5" y="2.5" class="st2" width="9.38" height="4.38"/>
		<rect x="68.12" y="6.88" class="st2" width="9.38" height="4.38"/>
		<rect x="58.75" y="6.88" class="st2" width="9.38" height="4.38"/>
		<rect x="49.38" y="6.88" class="st2" width="9.38" height="4.38"/>
		<rect x="40" y="6.88" class="st2" width="9.38" height="4.38"/>
		<rect x="30.62" y="6.88" class="st2" width="9.38" height="4.38"/>
		<rect x="21.25" y="6.88" class="st2" width="9.38" height="4.38"/>
		<rect x="11.88" y="6.88" class="st2" width="9.38" height="4.38"/>
		<rect x="2.5" y="6.88" class="st2" width="9.38" height="4.38"/>
		<rect x="68.12" y="11.25" class="st2" width="9.38" height="4.38"/>
		<rect x="58.75" y="11.25" class="st2" width="9.38" height="4.38"/>
		<rect x="49.38" y="11.25" class="st2" width="9.38" height="4.38"/>
		<rect x="40" y="11.25" class="st2" width="9.38" height="4.38"/>
		<rect x="30.62" y="11.25" class="st2" width="9.38" height="4.38"/>
		<rect x="21.25" y="11.25" class="st2" width="9.38" height="4.38"/>
		<rect x="11.88" y="11.25" class="st2" width="9.38" height="4.38"/>
		<rect x="2.5" y="11.25" class="st2" width="9.38" height="4.38"/>
		<rect x="68.12" y="15.62" class="st2" width="9.38" height="4.38"/>
		<rect x="58.75" y="15.62" class="st2" width="9.38" height="4.38"/>
		<rect x="49.38" y="15.62" class="st2" width="9.38" height="4.38"/>
		<rect x="40" y="15.62" class="st2" width="9.38" height="4.38"/>
		<rect x="30.62" y="15.62" class="st2" width="9.38" height="4.38"/>
		<rect x="21.25" y="15.62" class="st2" width="9.38" height="4.38"/>
		<rect x="11.88" y="15.62" class="st2" width="9.38" height="4.38"/>
		<rect x="2.5" y="15.62" class="st2" width="9.38" height="4.38"/>
		<rect x="68.12" y="20" class="st2" width="9.38" height="4.38"/>
		<rect x="58.75" y="20" class="st2" width="9.38" height="4.38"/>
		<rect x="49.38" y="20" class="st2" width="9.38" height="4.38"/>
		<rect x="40" y="20" class="st2" width="9.38" height="4.38"/>
		<rect x="30.62" y="20" class="st2" width="9.38" height="4.38"/>
		<rect x="21.25" y="20" class="st2" width="9.38" height="4.38"/>
		<rect x="11.88" y="20" class="st2" width="9.38" height="4.38"/>
		<rect x="2.5" y="20" class="st2" width="9.38" height="4.38"/>
		<rect x="68.12" y="24.38" class="st2" width="9.38" height="4.38"/>
		<rect x="58.75" y="24.38" class="st2" width="9.38" height="4.38"/>
		<rect x="49.38" y="24.38" class="st2" width="9.38" height="4.38"/>
		<rect x="40" y="24.38" class="st2" width="9.38" height="4.38"/>
		<rect x="30.62" y="24.38" class="st2" width="9.38" height="4.38"/>
		<rect x="21.25" y="24.38" class="st2" width="9.38" height="4.38"/>
		<rect x="11.88" y="24.38" class="st2" width="9.38" height="4.38"/>
		<rect x="2.5" y="24.38" class="st2" width="9.38" height="4.38"/>
		<rect x="68.12" y="28.75" class="st2" width="9.38" height="4.38"/>
		<rect x="58.75" y="28.75" class="st2" width="9.38" height="4.38"/>
		<rect x="49.38" y="28.75" class="st2" width="9.38" height="4.38"/>
		<rect x="40" y="28.75" class="st2" width="9.38" height="4.38"/>
		<rect x="30.62" y="28.75" class="st2" width="9.38" height="4.38"/>
		<rect x="21.25" y="28.75" class="st2" width="9.38" height="4.38"/>
		<rect x="11.88" y="28.75" class="st2" width="9.38" height="4.38"/>
		<rect x="2.5" y="28.75" class="st2" width="9.38" height="4.38"/>
		<rect x="68.12" y="33.12" class="st2" width="9.38" height="4.38"/>
		<rect x="58.75" y="33.12" class="st2" width="9.38" height="4.38"/>
		<rect x="49.38" y="33.12" class="st2" width="9.38" height="4.38"/>
		<rect x="40" y="33.12" class="st2" width="9.38" height="4.38"/>
		<rect x="30.62" y="33.12" class="st2" width="9.38" height="4.38"/>
		<rect x="21.25" y="33.12" class="st2" width="9.38" height="4.38"/>
		<rect x="11.88" y="33.12" class="st2" width="9.38" height="4.38"/>
		<rect x="2.5" y="33.12" class="st2" width="9.38" height="4.38"/>
	</g>
	<path class="st3" d="M2.5,32.5"/>
	<path class="st3" d="M2.5,32.5"/>
</g>
<g id="Layer_1">
	<g>
		<g>
			<rect x="6.54" y="7.19" class="st4" width="14.85" height="4.35"/>
			<rect x="6.54" y="21.62" class="st4" width="14.85" height="4.35"/>
			<polygon class="st4" points="6.54,14.3 18.64,14.3 16.21,17.59 6.54,17.59 			"/>
			<path class="st5" d="M5.81,8.13l-3.48,6.89v6.53l1.89-3.26l0.22,0l-2.11,4.23v5.92l2.25-3.34l0.01,0.42c0,0-1.58,3.48-1.54,3.52
				c0.03,0.05,0,0.4,0,0.4h0.68l2.07-3.31l0.05-4.51l-2.58,2.94l-0.25-0.24l2.59-5.12l0.21-0.46l0.03-4.4l-1.9,2.32l-0.22-0.46
				l2.12-3.99V8.13"/>
		</g>
		<g>
			<path d="M57,21.56c-0.7-1.14-0.63-1.71,0.46-3.77c-1.75,0.63-2.21,2.62-3.66,3.69c-0.64-0.52-0.29-1.14-0.37-1.46
				c0.94-1.52,1.79-2.9,2.64-4.28c-0.07-0.06-0.14-0.11-0.21-0.17c-1.31,1.5-2.79,2.93-3.85,4.61c-0.56,1.42-2,1.39-1.8-0.35
				c1.19-1.34,2.43-2.62,2.99-4.42c-1.67-0.27-2.34,1.71-4,1.23c-0.11-1.16,0.54-1.87,1.52-2.47c0.03,0.15,0.05,0.26,0.07,0.39
				c0.97-0.31,1.96-0.63,2.82-0.91c1.09,0.75,0.8,1.58,0.48,2.45c1.1-0.76,1.69-2.22,3.27-2.18c0.73,1.08-0.12,1.86-0.49,2.94
				c1.37-1.1,2.56-2.06,3.72-3c2.5,1.91-3.61,4-2.38,6.75c1.06-0.36,1.73-1.27,2.66-1.73C60.67,20.18,58.61,21.64,57,21.56z"/>
			<path d="M48.75,14.64c0.17,1.4-1.55,1.82-1.74,3.04c0.35,0.05,0.7,0.1,1.16,0.17c-0.46,0.54-0.85,1-1.22,1.43
				c-0.53,0.12-1.03,0.24-1.54,0.35c-0.07,0.54-0.12,0.97-0.17,1.44c-0.39,0.1-0.77,0.2-1.13,0.29c-0.54-0.77,0.3-1.29,0.23-1.96
				c-1.98-0.38-2.03,1.1-3.38,2.14c-1.14-0.67,0.32-1.24-0.01-1.89c-0.15-0.04-0.37-0.09-0.72-0.18c0.11-0.37,0.21-0.72,0.31-1.06
				c2.26,0.2,3.63-1.48,4.82-3.15c-1.9-0.96-4.16,1.7-6.12,1.97c-0.93-2.84,5.08-3.66,7.06-3.23c1.03,1.53-1.02,2.5-1.69,3.7
				c0.44,0,0.8,0,1.2,0c0.88-1.05,1.77-2.12,2.67-3.19C48.57,14.55,48.66,14.6,48.75,14.64z"/>
			<path d="M62.96,19.88c1.87,1.45,3.86-0.41,5.74-0.94c0.25,2.55-3.52,2.99-5.42,2.76c-3.29-0.93,0.12-3.86,2.14-4.08
				c-0.88-0.33-1.56-0.58-2.27-0.85c-0.02-0.39-0.03-0.72-0.05-1c1.5-2.13,3.22-2.21,6.57-1.98c0.09,0.25,0.19,0.55,0.34,1
				c-0.8,0.39-1.55,0.75-2.3,1.11c-0.05-0.03-0.09-0.06-0.14-0.1c0.12-0.21,0.23-0.43,0.41-0.74c-1.28,0.33-2.67,0.07-3.71,1.34
				c1.41,0.7,2.89,0.07,4.45,0.5C67.25,18.78,64.81,17.8,62.96,19.88z"/>
			<path d="M29.59,16.75c-0.86,2.25-3.7,0.86-5.52,3.15c1.76,1.38,3.81-0.32,5.57-0.96c0.41,2.62-3.66,3.05-5.56,2.7
				c-2.96-1.45,0.62-3.68,2.43-4.07c-0.85-0.29-1.63-0.55-2.35-0.79c0.05-3.24,4.03-3.29,6.42-3.02c0.75,1.61-0.92,1.65-2.02,2.04
				c0.11-0.2,0.23-0.4,0.34-0.6c-1.28,0.02-2.99-0.02-3.52,1.56C26.91,16.75,28.17,16.75,29.59,16.75z"/>
			<path d="M77.39,13.53c0.24,0.09,0.43,0.32,0.45,0.58c0.19,1.85-3.43,5.48-4.72,4c0.8-1.9,3.53-1.79,3.61-4.25
				c-2.12,1.06-3.64,2.64-4.97,4.61c-0.04,0.07-0.49,0.89-0.4,1.46c0.09,0.58,0.73,0.9,0.92,0.94c2,0.34,3.21-1.53,5.07-2.52
				c-0.88,2.83-8.21,6.2-7.17,0.89C70.96,16.76,74.57,12.45,77.39,13.53z"/>
			<path d="M29.97,21.09c0.79-2.5,1.83-0.71,3.06-2.43c1.6-1.51,2.9-4.7,5.34-4.68c0.14,0.62,0.17,1.19-0.3,1.77
				c-0.64,0.85-0.89,2.89-2.46,2.28c0.24-0.59,0.48-1.18,0.71-1.76c-0.04-0.04-0.08-0.07-0.12-0.11c-0.94,1.08-1.88,2.16-2.82,3.23
				c1.49,0.03,2.77,0.45,3.98,1.09c-0.76,1.06-1.22,1.18-2.41,0.89C33.3,20.73,31.64,21.15,29.97,21.09z"/>
		</g>
		<g>
			<path d="M7.36,31.84H6.54v-0.29h2v0.29H7.71v2.44H7.36V31.84z"/>
			<path d="M9.44,31.54h0.86c0.56,0,0.96,0.2,0.96,0.77c0,0.55-0.4,0.81-0.96,0.81H9.79v1.16H9.44V31.54z M10.25,32.84
				c0.43,0,0.66-0.17,0.66-0.53c0-0.36-0.23-0.49-0.66-0.49H9.79v1.01H10.25z M10.23,33.03l0.27-0.18l0.83,1.43h-0.39L10.23,33.03z"
				/>
			<path d="M12.77,31.54h0.39l0.92,2.73h-0.37l-0.48-1.53c-0.1-0.31-0.19-0.61-0.27-0.92h-0.02c-0.08,0.32-0.17,0.62-0.27,0.92
				l-0.48,1.53h-0.35L12.77,31.54z M12.33,33.17h1.26v0.28h-1.26V33.17z"/>
			<path d="M14.87,31.54h0.36l0.99,1.72l0.29,0.57h0.02c-0.02-0.28-0.04-0.58-0.04-0.87v-1.42h0.33v2.73h-0.36l-0.99-1.72
				l-0.29-0.56h-0.02c0.02,0.28,0.04,0.57,0.04,0.85v1.43h-0.33V31.54z"/>
			<path d="M17.77,33.92l0.21-0.24c0.2,0.2,0.47,0.34,0.75,0.34c0.36,0,0.57-0.18,0.57-0.44c0-0.28-0.2-0.37-0.46-0.48l-0.39-0.17
				c-0.25-0.11-0.55-0.3-0.55-0.7c0-0.42,0.36-0.73,0.86-0.73c0.32,0,0.61,0.14,0.8,0.34l-0.18,0.22c-0.17-0.16-0.37-0.26-0.62-0.26
				c-0.31,0-0.51,0.16-0.51,0.4c0,0.26,0.24,0.36,0.45,0.45l0.39,0.17c0.32,0.14,0.56,0.32,0.56,0.73c0,0.43-0.36,0.78-0.93,0.78
				C18.35,34.33,18.01,34.17,17.77,33.92z"/>
			<path d="M20.61,31.54h1.58v0.29h-1.23v0.92H22v0.29h-1.04v1.22h-0.35V31.54z"/>
			<path d="M22.88,32.9c0-0.88,0.48-1.41,1.17-1.41c0.69,0,1.17,0.53,1.17,1.41c0,0.88-0.48,1.43-1.17,1.43
				C23.36,34.33,22.88,33.78,22.88,32.9z M24.86,32.9c0-0.68-0.32-1.1-0.81-1.1c-0.49,0-0.81,0.42-0.81,1.1
				c0,0.68,0.32,1.12,0.81,1.12C24.54,34.02,24.86,33.58,24.86,32.9z"/>
			<path d="M26.21,31.54h0.86c0.56,0,0.96,0.2,0.96,0.77c0,0.55-0.4,0.81-0.96,0.81h-0.51v1.16h-0.35V31.54z M27.02,32.84
				c0.43,0,0.66-0.17,0.66-0.53c0-0.36-0.23-0.49-0.66-0.49h-0.46v1.01H27.02z M27,33.03l0.27-0.18l0.83,1.43h-0.39L27,33.03z"/>
			<path d="M29,31.54h0.42L29.94,33c0.07,0.19,0.13,0.38,0.19,0.57h0.02c0.07-0.19,0.12-0.38,0.19-0.57l0.52-1.46h0.42v2.73h-0.32
				v-1.51c0-0.24,0.03-0.57,0.04-0.81h-0.02l-0.22,0.62L30.25,34h-0.23l-0.52-1.41l-0.22-0.62h-0.02c0.02,0.24,0.04,0.57,0.04,0.81
				v1.51H29V31.54z"/>
			<path d="M33,31.54h0.39l0.92,2.73h-0.37l-0.48-1.53c-0.1-0.31-0.19-0.61-0.27-0.92h-0.02c-0.08,0.32-0.17,0.62-0.27,0.92
				l-0.48,1.53h-0.35L33,31.54z M32.56,33.17h1.26v0.28h-1.26V33.17z"/>
			<path d="M35.1,31.54h0.68c0.84,0,1.29,0.49,1.29,1.36c0,0.87-0.45,1.38-1.28,1.38h-0.7V31.54z M35.76,33.99
				c0.64,0,0.96-0.4,0.96-1.09s-0.32-1.07-0.96-1.07h-0.31v2.16H35.76z"/>
			<path d="M37.91,32.9c0-0.88,0.48-1.41,1.17-1.41c0.69,0,1.17,0.53,1.17,1.41c0,0.88-0.48,1.43-1.17,1.43
				C38.39,34.33,37.91,33.78,37.91,32.9z M39.89,32.9c0-0.68-0.32-1.1-0.81-1.1c-0.49,0-0.81,0.42-0.81,1.1
				c0,0.68,0.32,1.12,0.81,1.12C39.57,34.02,39.89,33.58,39.89,32.9z"/>
			<path d="M41.25,31.54h0.86c0.56,0,0.96,0.2,0.96,0.77c0,0.55-0.4,0.81-0.96,0.81H41.6v1.16h-0.35V31.54z M42.05,32.84
				c0.43,0,0.66-0.17,0.66-0.53c0-0.36-0.23-0.49-0.66-0.49H41.6v1.01H42.05z M42.04,33.03l0.27-0.18l0.83,1.43h-0.39L42.04,33.03z"
				/>
			<path d="M44.03,31.54h1.58v0.29h-1.23v0.86h1.04v0.29h-1.04v0.99h1.27v0.29h-1.62V31.54z"/>
			<path d="M46.44,33.92l0.21-0.24c0.2,0.2,0.47,0.34,0.75,0.34c0.36,0,0.57-0.18,0.57-0.44c0-0.28-0.2-0.37-0.46-0.48l-0.39-0.17
				c-0.25-0.11-0.55-0.3-0.55-0.7c0-0.42,0.36-0.73,0.86-0.73c0.32,0,0.61,0.14,0.8,0.34l-0.18,0.22c-0.17-0.16-0.37-0.26-0.62-0.26
				c-0.31,0-0.51,0.16-0.51,0.4c0,0.26,0.24,0.36,0.45,0.45l0.39,0.17c0.32,0.14,0.56,0.32,0.56,0.73c0,0.43-0.36,0.78-0.93,0.78
				C47.01,34.33,46.68,34.17,46.44,33.92z"/>
			<path d="M50.32,33.92l0.21-0.24c0.2,0.2,0.47,0.34,0.75,0.34c0.36,0,0.57-0.18,0.57-0.44c0-0.28-0.2-0.37-0.46-0.48l-0.39-0.17
				c-0.25-0.11-0.55-0.3-0.55-0.7c0-0.42,0.36-0.73,0.86-0.73c0.32,0,0.61,0.14,0.8,0.34l-0.18,0.22c-0.17-0.16-0.37-0.26-0.62-0.26
				c-0.31,0-0.51,0.16-0.51,0.4c0,0.26,0.24,0.36,0.45,0.45l0.39,0.17c0.32,0.14,0.56,0.32,0.56,0.73c0,0.43-0.36,0.78-0.93,0.78
				C50.89,34.33,50.56,34.17,50.32,33.92z"/>
			<path d="M53.05,34.07c0-0.16,0.11-0.26,0.25-0.26c0.14,0,0.25,0.11,0.25,0.26c0,0.15-0.11,0.26-0.25,0.26
				C53.17,34.33,53.05,34.22,53.05,34.07z"/>
			<path d="M55.17,31.54h0.39l0.92,2.73h-0.37l-0.48-1.53c-0.1-0.31-0.19-0.61-0.27-0.92h-0.02c-0.08,0.32-0.17,0.62-0.27,0.92
				l-0.48,1.53h-0.35L55.17,31.54z M54.73,33.17h1.26v0.28h-1.26V33.17z"/>
			<path d="M57.18,34.07c0-0.16,0.11-0.26,0.25-0.26c0.14,0,0.25,0.11,0.25,0.26c0,0.15-0.11,0.26-0.25,0.26
				C57.3,34.33,57.18,34.22,57.18,34.07z"/>
			<path d="M59.99,31.54h0.68c0.84,0,1.29,0.49,1.29,1.36c0,0.87-0.45,1.38-1.28,1.38h-0.7V31.54z M60.64,33.99
				c0.64,0,0.96-0.4,0.96-1.09s-0.32-1.07-0.96-1.07h-0.31v2.16H60.64z"/>
			<path d="M62.96,31.54h1.58v0.29h-1.23v0.86h1.04v0.29h-1.04v0.99h1.27v0.29h-1.62V31.54z"/>
			<path d="M66.65,32.91c0-0.88,0.52-1.42,1.21-1.42c0.33,0,0.59,0.16,0.75,0.34l-0.19,0.23c-0.14-0.15-0.32-0.26-0.55-0.26
				c-0.52,0-0.86,0.42-0.86,1.1c0,0.69,0.33,1.12,0.85,1.12c0.26,0,0.46-0.11,0.63-0.31l0.19,0.22c-0.22,0.25-0.48,0.39-0.84,0.39
				C67.17,34.33,66.65,33.8,66.65,32.91z"/>
			<path d="M69.5,34.07c0-0.16,0.11-0.26,0.25-0.26c0.14,0,0.25,0.11,0.25,0.26c0,0.15-0.11,0.26-0.25,0.26
				C69.61,34.33,69.5,34.22,69.5,34.07z"/>
			<path d="M70.41,31.54h0.37l0.44,1.48c0.1,0.32,0.16,0.58,0.26,0.9h0.02c0.1-0.32,0.17-0.58,0.26-0.9l0.44-1.48h0.35l-0.87,2.73
				h-0.4L70.41,31.54z"/>
			<path d="M72.97,34.07c0-0.16,0.11-0.26,0.25-0.26c0.14,0,0.25,0.11,0.25,0.26c0,0.15-0.11,0.26-0.25,0.26
				C73.08,34.33,72.97,34.22,72.97,34.07z"/>
		</g>
	</g>
	<g>
	</g>
	<g>
	</g>
	<g>
	</g>
	<g>
	</g>
	<g>
	</g>
	<g>
	</g>
	<g>
	</g>
	<g>
	</g>
	<g>
	</g>
	<g>
	</g>
	<g>
	</g>
	<g>
	</g>
	<g>
	</g>
	<g>
	</g>
	<g>
	</g>
</g>
</svg>
